<?xml version="1.0" encoding="UTF-8" standalone="no"?>
<svg
   xmlns:dc="http://purl.org/dc/elements/1.1/"
   xmlns:cc="http://creativecommons.org/ns#"
   xmlns:rdf="http://www.w3.org/1999/02/22-rdf-syntax-ns#"
   xmlns:svg="http://www.w3.org/2000/svg"
   xmlns="http://www.w3.org/2000/svg"
   viewBox="0 0 201.25 201.25"
   height="201.25"
   width="201.25"
   xml:space="preserve"
   version="1.1"
   id="svg2"><metadata
     id="metadata8"><rdf:RDF><cc:Work
         rdf:about=""><dc:format>image/svg+xml</dc:format><dc:type
           rdf:resource="http://purl.org/dc/dcmitype/StillImage" /></cc:Work></rdf:RDF></metadata><defs
     id="defs6" /><g
     transform="matrix(1.25,0,0,-1.25,0,201.25)"
     id="g10"><g
       transform="scale(0.1,0.1)"
       id="g12"><path
         id="path14"
         style="fill:none;stroke:#5ba533;stroke-width:30;stroke-linecap:butt;stroke-linejoin:miter;stroke-miterlimit:4;stroke-dasharray:none;stroke-opacity:1"
         d="M 465.129,663.352 78.8555,502.371" /><path
         id="path16"
         style="fill:#5ba533;fill-opacity:1;fill-rule:nonzero;stroke:none"
         d="M 1.44531,470.109 149.082,476.879 110.195,570.18 1.44531,470.109" /><path
         id="path18"
         style="fill:none;stroke:#9f3d20;stroke-width:30;stroke-linecap:butt;stroke-linejoin:miter;stroke-miterlimit:4;stroke-dasharray:none;stroke-opacity:1"
         d="m 1144.86,946.648 386.27,160.982" /><path
         id="path20"
         style="fill:#9f3d20;fill-opacity:1;fill-rule:nonzero;stroke:none"
         d="m 1608.54,1139.89 -147.62,-6.78 38.87,-93.29 108.75,100.07" /><path
         id="path22"
         style="fill:none;stroke:#5c1941;stroke-width:30;stroke-linecap:butt;stroke-linejoin:miter;stroke-miterlimit:4;stroke-dasharray:none;stroke-opacity:1"
         d="M 946.641,465.129 1107.62,78.8594" /><path
         id="path24"
         style="fill:#5c1941;fill-opacity:1;fill-rule:nonzero;stroke:none"
         d="M 1039.82,110.211 1139.88,1.46094 1133.11,149.082 1039.82,110.211" /><path
         id="path26"
         style="fill:none;stroke:#892d81;stroke-width:30;stroke-linecap:butt;stroke-linejoin:miter;stroke-miterlimit:4;stroke-dasharray:none;stroke-opacity:1"
         d="M 663.34,1144.88 502.363,1531.14" /><path
         id="path28"
         style="fill:#892d81;fill-opacity:1;fill-rule:nonzero;stroke:none"
         d="m 476.875,1460.92 93.293,38.88 -100.07,108.75 6.777,-147.63" /><path
         id="path30"
         style="fill:none;stroke:#293981;stroke-width:30;stroke-linecap:butt;stroke-linejoin:miter;stroke-miterlimit:4;stroke-dasharray:none;stroke-opacity:1"
         d="M 664.824,464.512 505.527,77.5586" /><path
         id="path32"
         style="fill:#293981;fill-opacity:1;fill-rule:nonzero;stroke:none"
         d="M 473.613,0 573.203,109.191 479.746,147.66 473.613,0" /><path
         id="path34"
         style="fill:none;stroke:#2d8138;stroke-width:30;stroke-linecap:butt;stroke-linejoin:miter;stroke-miterlimit:4;stroke-dasharray:none;stroke-opacity:1"
         d="m 945.156,1145.49 159.294,386.95" /><path
         id="path36"
         style="fill:#2d8138;fill-opacity:1;fill-rule:nonzero;stroke:none"
         d="m 1036.8,1500.81 93.45,-38.47 6.14,147.66 -99.59,-109.19" /><path
         id="path38"
         style="fill:none;stroke:#c2831b;stroke-width:30;stroke-linecap:butt;stroke-linejoin:miter;stroke-miterlimit:4;stroke-dasharray:none;stroke-opacity:1"
         d="M 1145.49,664.836 1532.44,505.539" /><path
         id="path40"
         style="fill:#c2831b;fill-opacity:1;fill-rule:nonzero;stroke:none"
         d="M 1610,473.609 1500.82,573.211 1462.34,479.75 1610,473.609" /><path
         id="path42"
         style="fill:none;stroke:#7d1524;stroke-width:30;stroke-linecap:butt;stroke-linejoin:miter;stroke-miterlimit:4;stroke-dasharray:none;stroke-opacity:1"
         d="M 464.512,945.168 77.5469,1104.46" /><path
         id="path44"
         style="fill:#7d1524;fill-opacity:1;fill-rule:nonzero;stroke:none"
         d="m 0,1136.39 109.18,-99.6 38.476,93.46 L 0,1136.39" /></g></g></svg>