<?xml version="1.0" encoding="UTF-8" standalone="no"?>
<svg
   xmlns:dc="http://purl.org/dc/elements/1.1/"
   xmlns:cc="http://creativecommons.org/ns#"
   xmlns:rdf="http://www.w3.org/1999/02/22-rdf-syntax-ns#"
   xmlns:svg="http://www.w3.org/2000/svg"
   xmlns="http://www.w3.org/2000/svg"
   viewBox="0 0 210.89999 41.787498"
   height="41.787498"
   width="210.89999"
   xml:space="preserve"
   version="1.1"
   id="svg2"><metadata
     id="metadata8"><rdf:RDF><cc:Work
         rdf:about=""><dc:format>image/svg+xml</dc:format><dc:type
           rdf:resource="http://purl.org/dc/dcmitype/StillImage" /></cc:Work></rdf:RDF></metadata><defs
     id="defs6" /><g
     transform="matrix(1.25,0,0,-1.25,0,41.7875)"
     id="g10"><g
       transform="scale(0.1,0.1)"
       id="g12"><path
         id="path14"
         style="fill:#231f20;fill-opacity:1;fill-rule:nonzero;stroke:none"
         d="m 631.516,195.422 33.621,0 c 10.375,0 18.531,0.965 24.437,2.898 5.91,1.934 10.617,4.657 14.121,8.164 4.942,4.942 8.789,11.582 11.555,19.93 2.754,8.34 4.129,18.457 4.129,30.344 0,16.472 -2.695,29.129 -8.106,37.976 -5.41,8.84 -11.972,14.766 -19.707,17.774 -5.586,2.148 -14.578,3.222 -26.964,3.222 l -33.086,0 0,-120.308 z m -20.84,-18.586 0,157.48 54.246,0 c 12.25,0 21.586,-0.753 28.031,-2.257 9.024,-2.079 16.719,-5.84 23.106,-11.278 8.3,-7.023 14.511,-15.988 18.632,-26.906 4.122,-10.926 6.172,-23.406 6.172,-37.441 0,-11.961 -1.386,-22.555 -4.179,-31.797 -2.793,-9.239 -6.387,-16.883 -10.743,-22.926 -4.375,-6.059 -9.16,-10.824 -14.343,-14.301 -5.196,-3.465 -11.457,-6.101 -18.801,-7.89 -7.344,-1.786 -15.781,-2.684 -25.297,-2.684 l -56.824,0" /><path
         id="path16"
         style="fill:#231f20;fill-opacity:1;fill-rule:nonzero;stroke:none"
         d="m 781.684,244.832 63.711,0 c -0.86,9.602 -3.301,16.797 -7.305,21.594 -6.172,7.449 -14.149,11.172 -23.965,11.172 -8.875,0 -16.348,-2.969 -22.391,-8.918 -6.054,-5.946 -9.406,-13.895 -10.05,-23.848 z m 63.496,-31.258 19.98,-2.472 c -3.164,-11.668 -8.992,-20.731 -17.519,-27.176 -8.516,-6.446 -19.403,-9.668 -32.657,-9.668 -16.679,0 -29.91,5.137 -39.687,15.418 -9.774,10.273 -14.668,24.687 -14.668,43.234 0,19.188 4.941,34.09 14.824,44.688 9.883,10.593 22.707,15.898 38.457,15.898 15.254,0 27.715,-5.195 37.383,-15.578 9.668,-10.379 14.512,-24.988 14.512,-43.828 0,-1.141 -0.039,-2.86 -0.117,-5.156 l -85.079,0 c 0.723,-12.528 4.258,-22.129 10.645,-28.789 6.367,-6.661 14.316,-9.989 23.848,-9.989 7.089,0 13.136,1.864 18.144,5.586 5.02,3.719 8.984,9.668 11.934,17.832" /><path
         id="path18"
         style="fill:#231f20;fill-opacity:1;fill-rule:nonzero;stroke:none"
         d="m 907.055,234.734 c 0,-13.679 1.855,-23.562 5.586,-29.648 6.074,-9.949 14.316,-14.93 24.707,-14.93 8.437,0 15.742,3.672 21.914,11.004 6.152,7.344 9.238,18.281 9.238,32.824 0,14.891 -2.957,25.887 -8.867,32.977 -5.906,7.09 -13.047,10.637 -21.426,10.637 -8.457,0 -15.762,-3.672 -21.914,-11.008 -6.172,-7.344 -9.238,-17.957 -9.238,-31.856 z m 0.215,-57.898 -17.95,0 0,157.48 19.336,0 0,-56.183 c 8.164,10.246 18.594,15.363 31.27,15.363 7.012,0 13.652,-1.418 19.922,-4.25 6.269,-2.82 11.425,-6.797 15.468,-11.914 4.043,-5.125 7.207,-11.297 9.512,-18.535 2.285,-7.234 3.438,-14.969 3.438,-23.203 0,-19.547 -4.844,-34.656 -14.512,-45.332 -9.668,-10.672 -21.27,-16.004 -34.805,-16.004 -13.457,0 -24.023,5.625 -31.679,16.863 l 0,-14.285" /><path
         id="path20"
         style="fill:#231f20;fill-opacity:1;fill-rule:nonzero;stroke:none"
         d="m 1056.21,194.129 2.79,-17.078 c -5.44,-1.145 -10.31,-1.719 -14.61,-1.719 -7.02,0 -12.46,1.113 -16.33,3.328 -3.87,2.219 -6.59,5.137 -8.16,8.75 -1.57,3.625 -2.37,11.231 -2.37,22.832 l 0,65.637 -14.18,0 0,15.039 14.18,0 0,28.25 19.23,11.602 0,-39.852 19.45,0 0,-15.039 -19.45,0 0,-66.707 c 0,-5.52 0.33,-9.067 1.02,-10.637 0.68,-1.574 1.8,-2.832 3.34,-3.762 1.53,-0.925 3.73,-1.394 6.6,-1.394 2.15,0 4.98,0.254 8.49,0.75" /><path
         id="path22"
         style="fill:#231f20;fill-opacity:1;fill-rule:nonzero;stroke:none"
         d="m 1116.08,176.836 -41.79,157.48 21.38,0 23.95,-103.23 c 2.58,-10.813 4.8,-21.555 6.66,-32.231 4.02,16.829 6.38,26.536 7.09,29.114 l 29.97,106.347 25.14,0 22.56,-79.707 c 5.65,-19.765 9.74,-38.351 12.25,-55.754 2,9.954 4.62,21.379 7.84,34.27 l 24.7,101.191 20.95,0 -43.18,-157.48 -20.09,0 -33.19,119.988 c -2.8,10.031 -4.45,16.184 -4.94,18.477 -1.65,-7.235 -3.19,-13.387 -4.62,-18.477 l -33.41,-119.988 -21.27,0" /><path
         id="path24"
         style="fill:#231f20;fill-opacity:1;fill-rule:nonzero;stroke:none"
         d="m 1355.59,234.09 c -7.02,-2.86 -17.55,-5.301 -31.58,-7.305 -7.95,-1.14 -13.58,-2.43 -16.87,-3.863 -3.29,-1.438 -5.84,-3.527 -7.62,-6.293 -1.8,-2.75 -2.69,-5.809 -2.69,-9.18 0,-5.152 1.94,-9.453 5.85,-12.89 3.91,-3.438 9.62,-5.157 17.14,-5.157 7.45,0 14.07,1.633 19.87,4.883 5.8,3.262 10.06,7.727 12.79,13.379 2.08,4.367 3.11,10.813 3.11,19.34 l 0,7.086 z m 1.61,-43.184 c -7.16,-6.082 -14.05,-10.379 -20.67,-12.89 -6.63,-2.508 -13.74,-3.758 -21.33,-3.758 -12.54,0 -22.17,3.055 -28.9,9.187 -6.72,6.114 -10.09,13.946 -10.09,23.469 0,5.586 1.27,10.691 3.81,15.301 2.54,4.629 5.86,8.332 9.98,11.125 4.13,2.793 8.76,4.902 13.92,6.336 3.8,1.008 9.52,1.972 17.19,2.902 15.61,1.863 27.1,4.082 34.48,6.66 0.07,2.645 0.11,4.336 0.11,5.047 0,7.883 -1.83,13.43 -5.48,16.653 -4.94,4.363 -12.29,6.55 -22.02,6.55 -9.09,0 -15.81,-1.59 -20.15,-4.785 -4.33,-3.183 -7.54,-8.816 -9.61,-16.914 l -18.9,2.578 c 1.71,8.098 4.55,14.629 8.48,19.61 3.94,4.972 9.63,8.808 17.08,11.484 7.44,2.695 16.08,4.035 25.89,4.035 9.74,0 17.65,-1.144 23.74,-3.437 6.09,-2.297 10.57,-5.176 13.43,-8.645 2.86,-3.476 4.87,-7.859 6.01,-13.164 0.65,-3.289 0.97,-9.238 0.97,-17.832 l 0,-25.781 c 0,-17.977 0.41,-29.344 1.23,-34.102 0.82,-4.765 2.46,-9.336 4.89,-13.699 l -20.19,0 c -2,4.012 -3.29,8.699 -3.87,14.07" /><path
         id="path26"
         style="fill:#231f20;fill-opacity:1;fill-rule:nonzero;stroke:none"
         d="m 1452.83,194.129 2.79,-17.078 c -5.44,-1.145 -10.31,-1.719 -14.61,-1.719 -7.02,0 -12.46,1.113 -16.33,3.328 -3.86,2.219 -6.59,5.137 -8.16,8.75 -1.57,3.625 -2.36,11.231 -2.36,22.832 l 0,65.637 -14.18,0 0,15.039 14.18,0 0,28.25 19.22,11.602 0,-39.852 19.45,0 0,-15.039 -19.45,0 0,-66.707 c 0,-5.52 0.34,-9.067 1.02,-10.637 0.68,-1.574 1.8,-2.832 3.34,-3.762 1.53,-0.925 3.73,-1.394 6.6,-1.394 2.15,0 4.98,0.254 8.49,0.75" /><path
         id="path28"
         style="fill:#231f20;fill-opacity:1;fill-rule:nonzero;stroke:none"
         d="m 1546.18,218.621 19.01,-2.469 c -2.08,-13.105 -7.39,-23.371 -15.95,-30.773 -8.56,-7.418 -19.07,-11.121 -31.53,-11.121 -15.62,0 -28.16,5.105 -37.65,15.301 -9.49,10.214 -14.23,24.836 -14.23,43.886 0,12.317 2.04,23.098 6.12,32.336 4.08,9.239 10.29,16.16 18.64,20.789 8.34,4.61 17.41,6.926 27.23,6.926 12.38,0 22.52,-3.137 30.4,-9.406 7.88,-6.258 12.92,-15.156 15.14,-26.688 l -18.79,-2.902 c -1.79,7.668 -4.97,13.43 -9.51,17.297 -4.55,3.867 -10.05,5.801 -16.49,5.801 -9.74,0 -17.66,-3.489 -23.74,-10.481 -6.09,-6.972 -9.13,-18.027 -9.13,-33.133 0,-15.324 2.94,-26.464 8.81,-33.41 5.87,-6.941 13.53,-10.418 22.99,-10.418 7.58,0 13.92,2.324 19.01,6.981 5.08,4.66 8.3,11.816 9.67,21.484" /><path
         id="path30"
         style="fill:#231f20;fill-opacity:1;fill-rule:nonzero;stroke:none"
         d="m 1581.73,176.836 0,157.48 19.34,0 0,-56.503 c 9.02,10.457 20.41,15.683 34.16,15.683 8.45,0 15.79,-1.672 22.02,-4.992 6.23,-3.34 10.68,-7.938 13.38,-13.809 2.68,-5.867 4.02,-14.394 4.02,-25.566 l 0,-72.293 -19.33,0 0,72.293 c 0,9.668 -2.09,16.699 -6.29,21.113 -4.18,4.395 -10.12,6.602 -17.78,6.602 -5.73,0 -11.11,-1.485 -16.17,-4.453 -5.04,-2.977 -8.64,-7 -10.79,-12.09 -2.15,-5.086 -3.22,-12.098 -3.22,-21.055 l 0,-62.41 -19.34,0" /><path
         id="path32"
         style="fill:#231f20;fill-opacity:1;fill-rule:nonzero;stroke:none"
         d="m 20.8594,39.2188 18.9453,0 -2.2266,14.375 c -0.8593,5.7031 -1.3906,10.457 -1.6015,14.2578 -1.3047,-3.2813 -3.2032,-7.1797 -5.7032,-11.6797 L 20.8594,39.2188 Z M 0,16.8359 l 32.4609,57.2657 9.0235,0 9.4531,-57.2657 -7.4219,0 -2.7734,16.4844 -23.1641,0 L 8.39844,16.8359 0,16.8359" /><path
         id="path34"
         style="fill:#231f20;fill-opacity:1;fill-rule:nonzero;stroke:none"
         d="m 93.7734,46.5625 12.6176,0 c 4.898,0 8.492,0.5273 10.781,1.582 2.293,1.0547 4.129,2.6641 5.508,4.8243 1.383,2.1601 2.07,4.4531 2.07,6.875 0,1.875 -0.363,3.4101 -1.094,4.5898 -0.726,1.1797 -1.758,2.0586 -3.086,2.6172 -1.328,0.5547 -3.882,0.8398 -7.656,0.8398 l -14.6874,0 -4.4532,-21.3281 z m -13.8671,-29.7266 11.9921,57.2657 23.9066,0 c 4.14,0 7.246,-0.4805 9.316,-1.4258 2.07,-0.9492 3.785,-2.5781 5.137,-4.8828 1.351,-2.3047 2.031,-4.8946 2.031,-7.7539 0,-2.375 -0.48,-4.7774 -1.445,-7.2266 -0.961,-2.4531 -2.184,-4.4648 -3.653,-6.0547 -1.468,-1.5937 -2.961,-2.7851 -4.472,-3.5937 -1.508,-0.8125 -3.125,-1.4063 -4.844,-1.7969 -3.672,-0.8594 -7.383,-1.2891 -11.133,-1.2891 l -14.3357,0 -4.8438,-23.2422 -7.6562,0" /><path
         id="path36"
         style="fill:#231f20;fill-opacity:1;fill-rule:nonzero;stroke:none"
         d="m 141.602,33.2813 c 0,-3.9063 0.937,-6.8672 2.812,-8.8868 1.875,-2.0234 4.258,-3.0273 7.149,-3.0273 1.507,0 3.007,0.3047 4.492,0.918 1.484,0.6132 2.867,1.5429 4.14,2.7929 1.274,1.25 2.364,2.6758 3.262,4.2774 0.898,1.6015 1.621,3.3281 2.168,5.1758 0.805,2.5781 1.211,5.0468 1.211,7.4218 0,3.75 -0.941,6.6602 -2.832,8.7305 -1.891,2.0703 -4.262,3.1055 -7.129,3.1055 -2.211,0 -4.234,-0.5274 -6.055,-1.5821 -1.82,-1.0547 -3.472,-2.5976 -4.941,-4.6289 -1.469,-2.0312 -2.555,-4.3945 -3.242,-7.0898 -0.688,-2.6953 -1.035,-5.0977 -1.035,-7.207 z m -7.071,-0.7032 c 0,8.0938 2.383,14.8047 7.149,20.1172 3.929,4.375 9.086,6.5625 15.468,6.5625 5,0 9.028,-1.5625 12.09,-4.6875 3.063,-3.125 4.59,-7.3437 4.59,-12.6562 0,-4.7657 -0.961,-9.1993 -2.89,-13.3008 -1.93,-4.1016 -4.668,-7.2461 -8.223,-9.4336 -3.555,-2.1875 -7.301,-3.2813 -11.231,-3.2813 -3.226,0 -6.168,0.6914 -8.808,2.0704 -2.641,1.375 -4.664,3.3281 -6.055,5.8593 -1.391,2.5274 -2.09,5.4375 -2.09,8.75" /><path
         id="path38"
         style="fill:#231f20;fill-opacity:1;fill-rule:nonzero;stroke:none"
         d="m 186.387,16.8359 -4.336,41.4844 6.797,0 1.875,-18.6328 0.742,-10.4687 c 0.055,-0.7813 0.133,-2.3555 0.234,-4.7266 0.781,2.6562 1.446,4.6953 1.992,6.1133 0.547,1.414 1.422,3.4453 2.618,6.0742 l 9.882,21.6406 7.696,0 1.367,-20.7422 c 0.211,-3.1562 0.336,-7.3554 0.391,-12.6172 1.304,3.4844 3.421,8.3282 6.367,14.5313 l 8.906,18.8281 7.07,0 -20.273,-41.4844 -7.344,0 -1.562,24.336 c -0.102,1.5117 -0.18,4.4531 -0.235,8.8281 -1.07,-2.7852 -2.328,-5.7891 -3.789,-9.0234 l -10.976,-24.1407 -7.422,0" /><path
         id="path40"
         style="fill:#231f20;fill-opacity:1;fill-rule:nonzero;stroke:none"
         d="m 246.91,41.2109 23.281,0 c 0.024,0.7305 0.039,1.25 0.039,1.5625 0,3.543 -0.882,6.2579 -2.656,8.1446 -1.773,1.8828 -4.051,2.832 -6.836,2.832 -3.023,0 -5.777,-1.0469 -8.261,-3.125 -2.489,-2.0781 -4.34,-5.2266 -5.567,-9.4141 z m 20.547,-10.2734 6.875,-0.7031 c -0.992,-3.4102 -3.262,-6.6485 -6.816,-9.7266 -3.555,-3.0781 -7.793,-4.6094 -12.715,-4.6094 -3.071,0 -5.895,0.711 -8.457,2.1289 -2.567,1.4141 -4.52,3.4844 -5.86,6.1915 -1.343,2.7031 -2.011,5.789 -2.011,9.2578 0,4.5312 1.047,8.9257 3.144,13.1836 2.094,4.2578 4.809,7.4218 8.145,9.4921 3.336,2.0704 6.937,3.1055 10.82,3.1055 4.945,0 8.898,-1.5351 11.856,-4.6094 2.953,-3.0781 4.433,-7.2656 4.433,-12.5781 0,-2.0312 -0.183,-4.1094 -0.547,-6.25 l -30.547,0 c -0.101,-0.8125 -0.156,-1.5351 -0.156,-2.1875 0,-3.8789 0.895,-6.8476 2.676,-8.8867 1.781,-2.043 3.965,-3.0664 6.543,-3.0664 2.422,0 4.805,0.7891 7.148,2.3828 2.344,1.5898 4.164,3.875 5.469,6.875" /><path
         id="path42"
         style="fill:#231f20;fill-opacity:1;fill-rule:nonzero;stroke:none"
         d="m 282.203,16.8359 8.672,41.4844 6.25,0 -1.758,-8.4765 c 2.133,3.2031 4.223,5.5781 6.27,7.1093 2.047,1.5313 4.133,2.3047 6.269,2.3047 1.407,0 3.141,-0.5078 5.196,-1.5234 l -2.891,-6.5625 c -1.227,0.8867 -2.566,1.3281 -4.023,1.3281 -2.477,0 -5.016,-1.3789 -7.618,-4.1406 -2.601,-2.7656 -4.648,-7.7266 -6.132,-14.8828 l -3.516,-16.6407 -6.719,0" /><path
         id="path44"
         style="fill:#231f20;fill-opacity:1;fill-rule:nonzero;stroke:none"
         d="m 310.535,16.8359 7.539,36.0157 -6.328,0 1.137,5.4687 6.328,0 1.211,5.8985 c 0.625,2.9375 1.266,5.0664 1.933,6.3671 0.665,1.2969 1.743,2.375 3.243,3.2227 1.496,0.8477 3.535,1.2695 6.113,1.2695 1.797,0 4.398,-0.3828 7.809,-1.1328 l -1.29,-6.1719 c -2.394,0.625 -4.398,0.9375 -6.011,0.9375 -1.383,0 -2.43,-0.3437 -3.149,-1.0351 -0.715,-0.6953 -1.332,-2.3242 -1.851,-4.9024 l -0.942,-4.4531 7.895,0 -1.137,-5.4687 -7.89,0 -7.54,-36.0157 -7.07,0" /><path
         id="path46"
         style="fill:#231f20;fill-opacity:1;fill-rule:nonzero;stroke:none"
         d="m 360.906,24.3359 c -4.972,-5.625 -10.062,-8.4375 -15.269,-8.4375 -3.203,0 -5.789,0.918 -7.754,2.7539 -1.969,1.836 -2.949,4.0821 -2.949,6.7383 0,1.7461 0.441,4.7383 1.328,8.9844 l 5,23.9453 7.066,0 -5.547,-26.5234 c -0.468,-2.2188 -0.703,-3.9375 -0.703,-5.1563 0,-1.5625 0.477,-2.7851 1.43,-3.6523 0.949,-0.8711 2.347,-1.3086 4.195,-1.3086 1.981,0 3.914,0.4766 5.805,1.4453 1.887,0.9648 3.512,2.2656 4.883,3.9063 1.367,1.6406 2.476,3.582 3.339,5.8203 0.571,1.4336 1.235,3.9453 1.993,7.539 l 3.75,17.9297 7.07,0 -8.676,-41.4844 -6.519,0 1.558,7.5" /><path
         id="path48"
         style="fill:#231f20;fill-opacity:1;fill-rule:nonzero;stroke:none"
         d="m 377.25,16.8359 11.953,57.2657 7.07,0 -11.953,-57.2657 -7.07,0" /><path
         id="path50"
         style="fill:#231f20;fill-opacity:1;fill-rule:nonzero;stroke:none"
         d="m 430.82,16.8359 -3.515,57.2657 7.773,0 1.328,-28.3203 c 0.078,-1.3594 0.211,-5.0274 0.391,-11.0157 0.055,-1.6718 0.078,-2.8437 0.078,-3.5156 0,-0.4414 -0.016,-1.7305 -0.039,-3.8672 3.18,6.5117 5.469,11.0938 6.875,13.75 l 17.422,32.9688 7.89,0 1.915,-33.4766 c 0.21,-3.8281 0.351,-8.4375 0.429,-13.8281 0.469,1.3281 1.305,3.3086 2.5,5.9375 1.899,4.2461 3.305,7.2734 4.219,9.1015 l 16.328,32.2657 7.813,0 -29.141,-57.2657 -8.203,0 -1.914,34.6875 c -0.18,2.9688 -0.328,6.6094 -0.43,10.9375 -1.586,-3.625 -2.914,-6.4375 -3.984,-8.4375 l -19.844,-37.1875 -7.891,0" /><path
         id="path52"
         style="fill:#231f20;fill-opacity:1;fill-rule:nonzero;stroke:none"
         d="m 525.414,37.8516 c -0.988,-0.3907 -2.051,-0.6953 -3.184,-0.8985 -1.132,-0.207 -3.027,-0.4297 -5.683,-0.664 -4.113,-0.3633 -7.016,-0.8282 -8.711,-1.3868 -1.691,-0.5585 -2.969,-1.457 -3.828,-2.6757 -0.86,-1.2227 -1.289,-2.5782 -1.289,-4.0625 0,-1.9844 0.683,-3.6055 2.051,-4.8828 1.367,-1.2774 3.316,-1.9141 5.839,-1.9141 2.344,0 4.594,0.6133 6.758,1.8555 2.164,1.2382 3.867,2.957 5.117,5.1757 1.25,2.2149 2.227,5.3594 2.93,9.4532 z m -2.617,-15.8594 c -2.445,-2.1094 -4.805,-3.6524 -7.07,-4.6289 -2.266,-0.9766 -4.688,-1.4649 -7.266,-1.4649 -3.828,0 -6.914,1.1211 -9.258,3.3789 -2.344,2.254 -3.515,5.1368 -3.515,8.6524 0,2.3125 0.527,4.3672 1.582,6.1523 1.054,1.7852 2.457,3.2149 4.199,4.2969 1.746,1.082 3.883,1.8555 6.406,2.3242 1.59,0.3125 4.605,0.5547 9.043,0.7422 4.437,0.1836 7.625,0.6524 9.551,1.4063 0.547,1.9218 0.82,3.5273 0.82,4.8047 0,1.6406 -0.601,2.9296 -1.797,3.8671 -1.64,1.2969 -4.039,1.9532 -7.187,1.9532 -2.969,0 -5.395,-0.6563 -7.285,-1.9727 -1.887,-1.3203 -3.262,-3.1836 -4.122,-5.6055 l -7.148,0.625 c 1.461,4.1094 3.77,7.2657 6.934,9.4532 3.164,2.1875 7.156,3.2812 11.972,3.2812 5.133,0 9.196,-1.2226 12.188,-3.6719 2.293,-1.8281 3.437,-4.1914 3.437,-7.1093 0,-2.2188 -0.328,-4.7774 -0.976,-7.6953 L 531,30.4688 c -0.727,-3.2813 -1.094,-5.9493 -1.094,-8.0079 0,-1.3007 0.289,-3.1757 0.86,-5.625 l -7.149,0 c -0.39,1.3555 -0.664,3.0743 -0.82,5.1563" /><path
         id="path54"
         style="fill:#231f20;fill-opacity:1;fill-rule:nonzero;stroke:none"
         d="m 537.383,0.820313 0.43,6.640627 c 1.46,-0.42188 2.875,-0.625 4.257,-0.625 1.43,0 2.594,0.32031 3.477,0.97656 1.148,0.85938 2.398,2.4688 3.75,4.8438 l 2.266,4.0625 -6.915,41.6015 6.954,0 3.125,-20.9765 c 0.625,-4.1407 1.156,-8.2813 1.601,-12.4219 l 18.555,33.3984 7.383,0 L 555.82,11.3281 C 553.266,6.74609 551,3.71094 549.023,2.22656 547.047,0.742188 544.766,0 542.188,0 c -1.641,0 -3.243,0.273438 -4.805,0.820313" /><path
         id="path56"
         style="fill:#231f20;fill-opacity:1;fill-rule:nonzero;stroke:none"
         d="m 612.828,33.2813 c 0,-3.9063 0.938,-6.8672 2.813,-8.8868 1.875,-2.0234 4.257,-3.0273 7.148,-3.0273 1.508,0 3.008,0.3047 4.492,0.918 1.485,0.6132 2.864,1.5429 4.141,2.7929 1.273,1.25 2.363,2.6758 3.262,4.2774 0.898,1.6015 1.621,3.3281 2.168,5.1758 0.804,2.5781 1.211,5.0468 1.211,7.4218 0,3.75 -0.946,6.6602 -2.833,8.7305 -1.89,2.0703 -4.261,3.1055 -7.128,3.1055 -2.211,0 -4.235,-0.5274 -6.055,-1.5821 -1.82,-1.0547 -3.473,-2.5976 -4.942,-4.6289 -1.468,-2.0312 -2.554,-4.3945 -3.242,-7.0898 -0.687,-2.6953 -1.035,-5.0977 -1.035,-7.207 z m -7.07,-0.7032 c 0,8.0938 2.383,14.8047 7.148,20.1172 3.93,4.375 9.086,6.5625 15.469,6.5625 5,0 9.027,-1.5625 12.09,-4.6875 3.058,-3.125 4.59,-7.3437 4.59,-12.6562 0,-4.7657 -0.961,-9.1993 -2.891,-13.3008 -1.93,-4.1016 -4.668,-7.2461 -8.223,-9.4336 -3.554,-2.1875 -7.3,-3.2813 -11.23,-3.2813 -3.231,0 -6.168,0.6914 -8.809,2.0704 -2.64,1.375 -4.664,3.3281 -6.054,5.8593 -1.395,2.5274 -2.09,5.4375 -2.09,8.75" /><path
         id="path58"
         style="fill:#231f20;fill-opacity:1;fill-rule:nonzero;stroke:none"
         d="m 650.691,16.8359 7.539,36.0157 -6.328,0 1.133,5.4687 6.328,0 1.211,5.8985 c 0.625,2.9375 1.274,5.0664 1.938,6.3671 0.664,1.2969 1.742,2.375 3.242,3.2227 1.496,0.8477 3.531,1.2695 6.109,1.2695 1.797,0 4.403,-0.3828 7.809,-1.1328 l -1.289,-6.1719 c -2.391,0.625 -4.395,0.9375 -6.012,0.9375 -1.379,0 -2.426,-0.3437 -3.141,-1.0351 -0.718,-0.6953 -1.335,-2.3242 -1.859,-4.9024 l -0.933,-4.4531 7.882,0 -1.129,-5.4687 -7.886,0 -7.539,-36.0157 -7.075,0" /><path
         id="path60"
         style="fill:#231f20;fill-opacity:1;fill-rule:nonzero;stroke:none"
         d="m 697.348,16.8359 11.992,57.2657 41.328,0 -1.367,-6.5235 -33.672,0 -3.75,-17.8125 32.812,0 -1.367,-6.5234 -32.812,0 -4.141,-19.9219 36.055,0 -1.367,-6.4844 -43.711,0" /><path
         id="path62"
         style="fill:#231f20;fill-opacity:1;fill-rule:nonzero;stroke:none"
         d="m 747.797,16.8359 18.047,21.0547 -10.352,20.4297 7.813,0 3.515,-7.3828 c 1.309,-2.7656 2.481,-5.4023 3.516,-7.9297 l 11.953,15.3125 8.633,0 -17.422,-20.9765 10.469,-20.5079 -7.813,0 -4.14,8.4375 c -0.879,1.7969 -1.895,4.0235 -3.008,6.6797 l -12.344,-15.1172 -8.867,0" /><path
         id="path64"
         style="fill:#231f20;fill-opacity:1;fill-rule:nonzero;stroke:none"
         d="m 801.879,33.7891 c 0,-3.0977 0.215,-5.2422 0.664,-6.4453 0.645,-1.6915 1.719,-3.0586 3.203,-4.1016 1.484,-1.0469 3.203,-1.5625 5.156,-1.5625 4.063,0 7.344,2.2851 9.844,6.8555 2.5,4.5703 3.75,9.2382 3.75,14.0039 0,3.5156 -0.84,6.2304 -2.519,8.1445 -1.68,1.9141 -3.77,2.8711 -6.27,2.8711 -1.797,0 -3.457,-0.4805 -5,-1.4258 -1.543,-0.9492 -2.969,-2.375 -4.277,-4.2578 -1.309,-1.8867 -2.403,-4.1992 -3.262,-6.9336 -0.859,-2.7344 -1.289,-5.1172 -1.289,-7.1484 z m -13.984,-32.8516 11.992,57.3828 6.523,0 -1.211,-5.7812 c 2.422,2.5273 4.59,4.2773 6.504,5.2539 1.914,0.9765 3.945,1.4648 6.074,1.4648 3.965,0 7.246,-1.4375 9.844,-4.3164 2.598,-2.8828 3.906,-7.0039 3.906,-12.3633 0,-4.3242 -0.722,-8.2617 -2.148,-11.8164 -1.426,-3.5547 -3.184,-6.4179 -5.274,-8.5742 -2.089,-2.1602 -4.199,-3.75 -6.328,-4.7656 -2.129,-1.0156 -4.316,-1.5235 -6.562,-1.5235 -4.981,0 -8.828,2.5274 -11.563,7.5782 l -4.687,-22.5391 -7.07,0" /><path
         id="path66"
         style="fill:#231f20;fill-opacity:1;fill-rule:nonzero;stroke:none"
         d="m 836.039,16.8359 11.953,57.2657 7.071,0 -11.954,-57.2657 -7.07,0" /><path
         id="path68"
         style="fill:#231f20;fill-opacity:1;fill-rule:nonzero;stroke:none"
         d="m 863.402,33.2813 c 0,-3.9063 0.938,-6.8672 2.813,-8.8868 1.875,-2.0234 4.258,-3.0273 7.148,-3.0273 1.504,0 3.008,0.3047 4.492,0.918 1.485,0.6132 2.864,1.5429 4.141,2.7929 1.27,1.25 2.363,2.6758 3.262,4.2774 0.898,1.6015 1.621,3.3281 2.168,5.1758 0.801,2.5781 1.211,5.0468 1.211,7.4218 0,3.75 -0.946,6.6602 -2.832,8.7305 -1.895,2.0703 -4.266,3.1055 -7.129,3.1055 -2.215,0 -4.238,-0.5274 -6.055,-1.5821 -1.824,-1.0547 -3.476,-2.5976 -4.941,-4.6289 -1.473,-2.0312 -2.559,-4.3945 -3.242,-7.0898 -0.692,-2.6953 -1.036,-5.0977 -1.036,-7.207 z m -7.07,-0.7032 c 0,8.0938 2.383,14.8047 7.148,20.1172 3.926,4.375 9.083,6.5625 15.469,6.5625 5,0 9.024,-1.5625 12.09,-4.6875 3.059,-3.125 4.59,-7.3437 4.59,-12.6562 0,-4.7657 -0.965,-9.1993 -2.891,-13.3008 -1.933,-4.1016 -4.668,-7.2461 -8.222,-9.4336 -3.555,-2.1875 -7.305,-3.2813 -11.231,-3.2813 -3.23,0 -6.172,0.6914 -8.808,2.0704 -2.645,1.375 -4.668,3.3281 -6.055,5.8593 -1.395,2.5274 -2.09,5.4375 -2.09,8.75" /><path
         id="path70"
         style="fill:#231f20;fill-opacity:1;fill-rule:nonzero;stroke:none"
         d="m 900.289,16.8359 8.672,41.4844 6.25,0 -1.758,-8.4765 c 2.137,3.2031 4.227,5.5781 6.27,7.1093 2.039,1.5313 4.129,2.3047 6.269,2.3047 1.406,0 3.133,-0.5078 5.196,-1.5234 l -2.891,-6.5625 c -1.223,0.8867 -2.57,1.3281 -4.024,1.3281 -2.472,0 -5.011,-1.3789 -7.617,-4.1406 -2.609,-2.7656 -4.648,-7.7266 -6.133,-14.8828 l -3.515,-16.6407 -6.719,0" /><path
         id="path72"
         style="fill:#231f20;fill-opacity:1;fill-rule:nonzero;stroke:none"
         d="m 937.691,66.0938 1.68,8.0078 7.031,0 -1.679,-8.0078 -7.032,0 z m -10.312,-49.2579 8.672,41.4844 7.07,0 -8.672,-41.4844 -7.07,0" /><path
         id="path74"
         style="fill:#231f20;fill-opacity:1;fill-rule:nonzero;stroke:none"
         d="m 946.137,16.8359 8.672,41.4844 6.406,0 -1.524,-7.2265 c 2.793,2.8398 5.391,4.9101 7.813,6.2109 2.422,1.2969 4.902,1.9531 7.422,1.9531 3.359,0 5.996,-0.9101 7.91,-2.7344 1.914,-1.8281 2.871,-4.2578 2.871,-7.3046 0,-1.5352 -0.332,-3.9571 -1.016,-7.2657 l -5.273,-25.1172 -7.07,0 5.507,26.2891 c 0.547,2.5469 0.821,4.4414 0.821,5.6641 0,1.375 -0.469,2.5 -1.426,3.3593 -0.945,0.8594 -2.324,1.2891 -4.121,1.2891 -3.613,0 -6.836,-1.3008 -9.668,-3.9062 -2.82,-2.6094 -4.902,-7.0704 -6.231,-13.3985 l -4.023,-19.2969 -7.07,0" /><path
         id="path76"
         style="fill:#231f20;fill-opacity:1;fill-rule:nonzero;stroke:none"
         d="m 999.789,35.1953 c 0,-2.8437 0.271,-4.9726 0.821,-6.4062 0.78,-2.0039 1.89,-3.5352 3.34,-4.5899 1.45,-1.0547 3.06,-1.582 4.82,-1.582 2.33,0 4.63,0.8086 6.92,2.4414 2.29,1.6289 4.15,4.1523 5.56,7.5586 1.43,3.4062 2.13,6.668 2.13,9.7656 0,3.4063 -0.93,6.1211 -2.83,8.1445 -1.88,2.0196 -4.22,3.0274 -7.01,3.0274 -1.72,0 -3.38,-0.4609 -5,-1.3867 -1.61,-0.9297 -3.12,-2.3321 -4.51,-4.2188 -1.39,-1.8867 -2.44,-4.1523 -3.17,-6.7773 -0.71,-2.625 -1.071,-4.6211 -1.071,-5.9766 z m -8.828,-22.1094 7.148,-0.664 c -0.046,-1.6133 0.149,-2.82424 0.586,-3.63284 0.45,-0.8125 1.153,-1.4375 2.115,-1.875 1.27,-0.57812 2.93,-0.85937 4.96,-0.85937 4.27,0 7.34,1.10156 9.22,3.32031 1.23,1.4844 2.36,4.7148 3.39,9.6875 l 0.71,3.3594 c -3.67,-3.7227 -7.58,-5.586 -11.72,-5.586 -4.19,0 -7.698,1.543 -10.53,4.6289 -2.82,3.086 -4.238,7.4493 -4.238,13.1055 0,4.6563 1.113,8.9453 3.339,12.8516 2.227,3.9062 4.889,6.8554 7.949,8.8476 3.08,1.9922 6.24,2.9883 9.49,2.9883 5.45,0 9.64,-2.5781 12.58,-7.7344 l 1.41,6.7969 6.48,0 -8.36,-40.039 c -0.91,-4.4024 -2.11,-7.8321 -3.59,-10.29302 -1.48,-2.46094 -3.55,-4.36719 -6.19,-5.72265 -2.64,-1.35938 -5.7,-2.031255 -9.16,-2.031255 -3.33,0 -6.2,0.429688 -8.616,1.289065 -2.403,0.85937 -4.2,2.11719 -5.391,3.76953 -1.18,1.64844 -1.777,3.54297 -1.777,5.68363 0,0.6523 0.07,1.3593 0.195,2.1093" /><path
         id="path78"
         style="fill:#231f20;fill-opacity:1;fill-rule:nonzero;stroke:none"
         d="m 1070.16,23.3203 9.06,0 c 4.09,0 7.72,0.3789 10.9,1.1328 1.97,0.4688 3.67,1.1602 5.08,2.0703 1.85,1.1719 3.53,2.7227 5.04,4.6485 1.97,2.5469 3.55,5.457 4.75,8.7304 1.18,3.2696 1.77,6.9805 1.77,11.1524 0,4.6367 -0.81,8.1914 -2.42,10.6836 -1.62,2.4883 -3.67,4.1289 -6.17,4.9414 -1.86,0.5937 -4.73,0.8984 -8.63,0.8984 l -10.12,0 -9.26,-44.2578 z m -9.02,-6.4844 11.95,57.2657 17.27,0 c 4.14,0 7.3,-0.3047 9.49,-0.8985 3.12,-0.8125 5.79,-2.2461 8.01,-4.3164 2.2,-2.0703 3.87,-4.6601 5,-7.7539 1.11,-3.0976 1.68,-6.5742 1.68,-10.4297 0,-4.6093 -0.71,-8.8086 -2.09,-12.5976 -1.4,-3.7891 -3.23,-7.1211 -5.47,-10 -2.26,-2.8828 -4.61,-5.1289 -7.07,-6.7578 -2.46,-1.6329 -5.37,-2.8321 -8.73,-3.6133 -2.56,-0.5977 -5.7,-0.8985 -9.42,-0.8985 l -20.62,0" /><path
         id="path80"
         style="fill:#231f20;fill-opacity:1;fill-rule:nonzero;stroke:none"
         d="m 1128.65,41.2109 23.28,0 c 0.03,0.7305 0.04,1.25 0.04,1.5625 0,3.543 -0.89,6.2579 -2.66,8.1446 -1.77,1.8828 -4.05,2.832 -6.83,2.832 -3.02,0 -5.78,-1.0469 -8.27,-3.125 -2.49,-2.0781 -4.34,-5.2266 -5.56,-9.4141 z m 20.54,-10.2734 6.88,-0.7031 c -0.99,-3.4102 -3.26,-6.6485 -6.82,-9.7266 -3.55,-3.0781 -7.79,-4.6094 -12.71,-4.6094 -3.08,0 -5.89,0.711 -8.46,2.1289 -2.57,1.4141 -4.52,3.4844 -5.86,6.1915 -1.34,2.7031 -2.01,5.789 -2.01,9.2578 0,4.5312 1.04,8.9257 3.14,13.1836 2.1,4.2578 4.82,7.4218 8.15,9.4921 3.33,2.0704 6.94,3.1055 10.82,3.1055 4.95,0 8.9,-1.5351 11.85,-4.6094 2.96,-3.0781 4.44,-7.2656 4.44,-12.5781 0,-2.0312 -0.19,-4.1094 -0.55,-6.25 l -30.55,0 c -0.1,-0.8125 -0.15,-1.5351 -0.15,-2.1875 0,-3.8789 0.89,-6.8476 2.67,-8.8867 1.79,-2.043 3.97,-3.0664 6.55,-3.0664 2.42,0 4.8,0.7891 7.15,2.3828 2.34,1.5898 4.17,3.875 5.46,6.875" /><path
         id="path82"
         style="fill:#231f20;fill-opacity:1;fill-rule:nonzero;stroke:none"
         d="m 1174.41,33.8672 -0.04,-1.3281 c 0,-3.5469 0.85,-6.2422 2.54,-8.086 1.69,-1.8476 3.8,-2.7734 6.33,-2.7734 2.47,0 4.74,0.8672 6.81,2.5976 2.07,1.7266 3.77,4.4336 5.1,8.1055 1.33,3.6719 1.99,7.0586 1.99,10.1563 0,3.4843 -0.84,6.1992 -2.52,8.125 -1.68,1.9218 -3.76,2.8906 -6.23,2.8906 -2.55,0 -4.89,-0.9883 -7.03,-2.9492 -2.14,-1.9649 -3.91,-4.9922 -5.35,-9.0821 -1.06,-3.0468 -1.6,-5.5976 -1.6,-7.6562 z m -10.47,-17.0313 11.95,57.2657 7.07,0 -4.25,-20.4688 c 2.23,2.0586 4.26,3.5039 6.09,4.3555 1.83,0.8476 3.72,1.2695 5.7,1.2695 3.88,0 7.12,-1.4453 9.71,-4.3359 2.59,-2.8906 3.89,-7.1016 3.89,-12.6172 0,-3.6719 -0.52,-7.0313 -1.57,-10.0781 -1.04,-3.0469 -2.33,-5.6055 -3.86,-7.6758 -1.54,-2.0703 -3.13,-3.7227 -4.77,-4.961 -1.64,-1.2421 -3.32,-2.1601 -5.04,-2.7734 -1.72,-0.6172 -3.37,-0.918 -4.96,-0.918 -2.73,0 -5.15,0.7227 -7.23,2.168 -2.08,1.4453 -3.71,3.6524 -4.88,6.6211 l -1.64,-7.8516 -6.21,0" /><path
         id="path84"
         style="fill:#231f20;fill-opacity:1;fill-rule:nonzero;stroke:none"
         d="m 1225.67,22.5781 -1.17,-5.7812 c -1.69,-0.4414 -3.33,-0.6641 -4.92,-0.6641 -2.82,0 -5.05,0.6914 -6.72,2.0703 -1.25,1.043 -1.88,2.461 -1.88,4.2578 0,0.9063 0.34,3.0079 1.02,6.2891 l 5.04,24.1016 -5.59,0 1.13,5.4687 5.59,0 2.15,10.1953 8.08,4.8828 -3.16,-15.0781 6.95,0 -1.17,-5.4687 -6.91,0 -4.81,-22.9297 c -0.59,-2.918 -0.9,-4.6602 -0.9,-5.2344 0,-0.832 0.25,-1.4766 0.73,-1.9141 0.48,-0.4375 1.27,-0.664 2.36,-0.664 1.56,0 2.96,0.1562 4.18,0.4687" /><path
         id="path86"
         style="fill:#231f20;fill-opacity:1;fill-rule:nonzero;stroke:none"
         d="m 1257.76,16.8359 11.99,57.2657 7.62,0 -11.95,-57.2657 -7.66,0" /><path
         id="path88"
         style="fill:#231f20;fill-opacity:1;fill-rule:nonzero;stroke:none"
         d="m 1278.87,16.8359 8.67,41.4844 6.41,0 -1.52,-7.2265 c 2.79,2.8398 5.39,4.9101 7.81,6.2109 2.42,1.2969 4.9,1.9531 7.42,1.9531 3.36,0 6,-0.9101 7.91,-2.7344 1.92,-1.8281 2.87,-4.2578 2.87,-7.3046 0,-1.5352 -0.33,-3.9571 -1.01,-7.2657 l -5.28,-25.1172 -7.07,0 5.51,26.2891 c 0.55,2.5469 0.82,4.4414 0.82,5.6641 0,1.375 -0.47,2.5 -1.42,3.3593 -0.96,0.8594 -2.33,1.2891 -4.13,1.2891 -3.61,0 -6.83,-1.3008 -9.66,-3.9062 -2.84,-2.6094 -4.91,-7.0704 -6.23,-13.3985 l -4.03,-19.2969 -7.07,0" /><path
         id="path90"
         style="fill:#231f20;fill-opacity:1;fill-rule:nonzero;stroke:none"
         d="m 1393.33,36.9922 7.58,-1.0547 c -2.39,-6.6133 -5.89,-11.6133 -10.47,-15 -4.58,-3.3906 -9.72,-5.0781 -15.43,-5.0781 -6.95,0 -12.47,2.1172 -16.54,6.3672 -4.07,4.2461 -6.11,10.3203 -6.11,18.2422 0,10.3125 3.09,18.8359 9.3,25.5859 5.51,6.0156 12.38,9.0234 20.58,9.0234 6.07,0 10.99,-1.6328 14.75,-4.8828 3.76,-3.2539 5.94,-7.6289 6.54,-13.125 l -7.15,-0.664 c -0.75,4.1406 -2.31,7.2343 -4.67,9.2773 -2.35,2.0391 -5.4,3.0664 -9.12,3.0664 -7,0 -12.66,-3.1172 -16.99,-9.3359 -3.75,-5.3633 -5.62,-11.7305 -5.62,-19.1016 0,-5.8906 1.44,-10.3828 4.33,-13.4766 2.89,-3.0976 6.65,-4.6484 11.29,-4.6484 3.96,0 7.54,1.2891 10.74,3.8672 3.21,2.5781 5.54,6.2187 6.99,10.9375" /><path
         id="path92"
         style="fill:#231f20;fill-opacity:1;fill-rule:nonzero;stroke:none"
         d="m 1436.83,37.8516 c -0.99,-0.3907 -2.05,-0.6953 -3.18,-0.8985 -1.14,-0.207 -3.03,-0.4297 -5.69,-0.664 -4.11,-0.3633 -7.02,-0.8282 -8.71,-1.3868 -1.69,-0.5585 -2.97,-1.457 -3.83,-2.6757 -0.85,-1.2227 -1.28,-2.5782 -1.28,-4.0625 0,-1.9844 0.68,-3.6055 2.05,-4.8828 1.36,-1.2774 3.31,-1.9141 5.84,-1.9141 2.34,0 4.6,0.6133 6.75,1.8555 2.16,1.2382 3.87,2.957 5.12,5.1757 1.25,2.2149 2.23,5.3594 2.93,9.4532 z m -2.62,-15.8594 c -2.45,-2.1094 -4.8,-3.6524 -7.07,-4.6289 -2.26,-0.9766 -4.68,-1.4649 -7.26,-1.4649 -3.83,0 -6.92,1.1211 -9.26,3.3789 -2.34,2.254 -3.52,5.1368 -3.52,8.6524 0,2.3125 0.53,4.3672 1.59,6.1523 1.05,1.7852 2.45,3.2149 4.2,4.2969 1.74,1.082 3.87,1.8555 6.4,2.3242 1.59,0.3125 4.6,0.5547 9.04,0.7422 4.45,0.1836 7.63,0.6524 9.56,1.4063 0.54,1.9218 0.82,3.5273 0.82,4.8047 0,1.6406 -0.6,2.9296 -1.8,3.8671 -1.64,1.2969 -4.03,1.9532 -7.19,1.9532 -2.97,0 -5.4,-0.6563 -7.28,-1.9727 -1.89,-1.3203 -3.27,-3.1836 -4.12,-5.6055 l -7.15,0.625 c 1.45,4.1094 3.77,7.2657 6.93,9.4532 3.16,2.1875 7.16,3.2812 11.97,3.2812 5.13,0 9.19,-1.2226 12.19,-3.6719 2.3,-1.8281 3.44,-4.1914 3.44,-7.1093 0,-2.2188 -0.32,-4.7774 -0.98,-7.6953 l -2.3,-10.3125 c -0.74,-3.2813 -1.1,-5.9493 -1.1,-8.0079 0,-1.3007 0.29,-3.1757 0.86,-5.625 l -7.15,0 c -0.39,1.3555 -0.66,3.0743 -0.82,5.1563" /><path
         id="path94"
         style="fill:#231f20;fill-opacity:1;fill-rule:nonzero;stroke:none"
         d="m 1450.9,16.8359 11.96,57.2657 7.07,0 -11.96,-57.2657 -7.07,0" /><path
         id="path96"
         style="fill:#231f20;fill-opacity:1;fill-rule:nonzero;stroke:none"
         d="m 1479.99,66.0938 1.68,8.0078 7.03,0 -1.68,-8.0078 -7.03,0 z m -10.32,-49.2579 8.67,41.4844 7.08,0 -8.68,-41.4844 -7.07,0" /><path
         id="path98"
         style="fill:#231f20;fill-opacity:1;fill-rule:nonzero;stroke:none"
         d="m 1489.42,16.8359 7.54,36.0157 -6.33,0 1.13,5.4687 6.33,0 1.21,5.8985 c 0.63,2.9375 1.27,5.0664 1.94,6.3671 0.66,1.2969 1.73,2.375 3.24,3.2227 1.5,0.8477 3.53,1.2695 6.11,1.2695 1.8,0 4.4,-0.3828 7.81,-1.1328 l -1.29,-6.1719 c -2.4,0.625 -4.39,0.9375 -6.01,0.9375 -1.39,0 -2.42,-0.3437 -3.15,-1.0351 -0.72,-0.6953 -1.32,-2.3242 -1.85,-4.9024 l -0.94,-4.4531 7.89,0 -1.13,-5.4687 -7.89,0 -7.54,-36.0157 -7.07,0" /><path
         id="path100"
         style="fill:#231f20;fill-opacity:1;fill-rule:nonzero;stroke:none"
         d="m 1519.79,33.2813 c 0,-3.9063 0.94,-6.8672 2.81,-8.8868 1.88,-2.0234 4.26,-3.0273 7.15,-3.0273 1.5,0 3.01,0.3047 4.49,0.918 1.49,0.6132 2.87,1.5429 4.14,2.7929 1.27,1.25 2.37,2.6758 3.27,4.2774 0.89,1.6015 1.62,3.3281 2.16,5.1758 0.8,2.5781 1.21,5.0468 1.21,7.4218 0,3.75 -0.93,6.6602 -2.83,8.7305 -1.89,2.0703 -4.26,3.1055 -7.13,3.1055 -2.2,0 -4.23,-0.5274 -6.05,-1.5821 -1.82,-1.0547 -3.48,-2.5976 -4.94,-4.6289 -1.47,-2.0312 -2.56,-4.3945 -3.24,-7.0898 -0.69,-2.6953 -1.04,-5.0977 -1.04,-7.207 z m -7.07,-0.7032 c 0,8.0938 2.38,14.8047 7.15,20.1172 3.92,4.375 9.08,6.5625 15.47,6.5625 5,0 9.02,-1.5625 12.09,-4.6875 3.06,-3.125 4.59,-7.3437 4.59,-12.6562 0,-4.7657 -0.96,-9.1993 -2.89,-13.3008 -1.94,-4.1016 -4.67,-7.2461 -8.23,-9.4336 -3.55,-2.1875 -7.3,-3.2813 -11.23,-3.2813 -3.22,0 -6.17,0.6914 -8.81,2.0704 -2.63,1.375 -4.66,3.3281 -6.05,5.8593 -1.39,2.5274 -2.09,5.4375 -2.09,8.75" /><path
         id="path102"
         style="fill:#231f20;fill-opacity:1;fill-rule:nonzero;stroke:none"
         d="m 1556.68,16.8359 8.68,41.4844 6.25,0 -1.76,-8.4765 c 2.13,3.2031 4.22,5.5781 6.27,7.1093 2.04,1.5313 4.13,2.3047 6.27,2.3047 1.4,0 3.13,-0.5078 5.19,-1.5234 l -2.89,-6.5625 c -1.23,0.8867 -2.57,1.3281 -4.02,1.3281 -2.48,0 -5.02,-1.3789 -7.62,-4.1406 -2.61,-2.7656 -4.65,-7.7266 -6.13,-14.8828 l -3.52,-16.6407 -6.72,0" /><path
         id="path104"
         style="fill:#231f20;fill-opacity:1;fill-rule:nonzero;stroke:none"
         d="m 1584.05,16.8359 8.67,41.4844 6.41,0 -1.53,-7.2265 c 2.79,2.8398 5.39,4.9101 7.82,6.2109 2.42,1.2969 4.89,1.9531 7.42,1.9531 3.36,0 5.99,-0.9101 7.91,-2.7344 1.91,-1.8281 2.87,-4.2578 2.87,-7.3046 0,-1.5352 -0.34,-3.9571 -1.02,-7.2657 l -5.27,-25.1172 -7.07,0 5.51,26.2891 c 0.54,2.5469 0.82,4.4414 0.82,5.6641 0,1.375 -0.48,2.5 -1.43,3.3593 -0.96,0.8594 -2.32,1.2891 -4.12,1.2891 -3.62,0 -6.85,-1.3008 -9.67,-3.9062 -2.83,-2.6094 -4.9,-7.0704 -6.23,-13.3985 l -4.02,-19.2969 -7.07,0" /><path
         id="path106"
         style="fill:#231f20;fill-opacity:1;fill-rule:nonzero;stroke:none"
         d="m 1639.29,66.0938 1.68,8.0078 7.03,0 -1.68,-8.0078 -7.03,0 z m -10.31,-49.2579 8.67,41.4844 7.07,0 -8.67,-41.4844 -7.07,0" /><path
         id="path108"
         style="fill:#231f20;fill-opacity:1;fill-rule:nonzero;stroke:none"
         d="m 1678.33,37.8516 c -0.98,-0.3907 -2.05,-0.6953 -3.18,-0.8985 -1.13,-0.207 -3.03,-0.4297 -5.68,-0.664 -4.11,-0.3633 -7.02,-0.8282 -8.71,-1.3868 -1.69,-0.5585 -2.97,-1.457 -3.83,-2.6757 -0.86,-1.2227 -1.29,-2.5782 -1.29,-4.0625 0,-1.9844 0.68,-3.6055 2.05,-4.8828 1.37,-1.2774 3.31,-1.9141 5.84,-1.9141 2.34,0 4.6,0.6133 6.76,1.8555 2.16,1.2382 3.87,2.957 5.12,5.1757 1.25,2.2149 2.22,5.3594 2.92,9.4532 z m -2.61,-15.8594 c -2.45,-2.1094 -4.81,-3.6524 -7.07,-4.6289 -2.27,-0.9766 -4.69,-1.4649 -7.27,-1.4649 -3.83,0 -6.91,1.1211 -9.26,3.3789 -2.34,2.254 -3.51,5.1368 -3.51,8.6524 0,2.3125 0.53,4.3672 1.58,6.1523 1.06,1.7852 2.45,3.2149 4.2,4.2969 1.75,1.082 3.88,1.8555 6.41,2.3242 1.59,0.3125 4.6,0.5547 9.04,0.7422 4.44,0.1836 7.63,0.6524 9.55,1.4063 0.55,1.9218 0.82,3.5273 0.82,4.8047 0,1.6406 -0.6,2.9296 -1.8,3.8671 -1.64,1.2969 -4.03,1.9532 -7.18,1.9532 -2.97,0 -5.4,-0.6563 -7.29,-1.9727 -1.88,-1.3203 -3.26,-3.1836 -4.12,-5.6055 l -7.15,0.625 c 1.46,4.1094 3.77,7.2657 6.93,9.4532 3.17,2.1875 7.16,3.2812 11.98,3.2812 5.12,0 9.19,-1.2226 12.18,-3.6719 2.3,-1.8281 3.44,-4.1914 3.44,-7.1093 0,-2.2188 -0.32,-4.7774 -0.97,-7.6953 l -2.31,-10.3125 c -0.73,-3.2813 -1.09,-5.9493 -1.09,-8.0079 0,-1.3007 0.28,-3.1757 0.86,-5.625 l -7.15,0 c -0.39,1.3555 -0.67,3.0743 -0.82,5.1563" /></g></g></svg>