<?xml version="1.0" encoding="UTF-8" standalone="no"?>
<!-- Generator: Adobe Illustrator 16.0.3, SVG Export Plug-In . SVG Version: 6.00 Build 0)  -->

<svg
   xmlns:dc="http://purl.org/dc/elements/1.1/"
   xmlns:cc="http://creativecommons.org/ns#"
   xmlns:rdf="http://www.w3.org/1999/02/22-rdf-syntax-ns#"
   xmlns:svg="http://www.w3.org/2000/svg"
   xmlns="http://www.w3.org/2000/svg"
   xmlns:xlink="http://www.w3.org/1999/xlink"
   xmlns:sodipodi="http://sodipodi.sourceforge.net/DTD/sodipodi-0.dtd"
   xmlns:inkscape="http://www.inkscape.org/namespaces/inkscape"
   version="1.1"
   id="Layer_1"
   x="0px"
   y="0px"
   width="193px"
   height="193px"
   viewBox="0 0 193 193"
   enable-background="new 0 0 193 193"
   xml:space="preserve"
   inkscape:version="0.91 r13725"
   sodipodi:docname="explore.all.data.svg"><metadata
     id="metadata145"><rdf:RDF><cc:Work
         rdf:about=""><dc:format>image/svg+xml</dc:format><dc:type
           rdf:resource="http://purl.org/dc/dcmitype/StillImage" /></cc:Work></rdf:RDF></metadata><defs
     id="defs143" /><sodipodi:namedview
     pagecolor="#ffffff"
     bordercolor="#666666"
     borderopacity="1"
     objecttolerance="10"
     gridtolerance="10"
     guidetolerance="10"
     inkscape:pageopacity="0"
     inkscape:pageshadow="2"
     inkscape:window-width="1212"
     inkscape:window-height="576"
     id="namedview141"
     showgrid="false"
     inkscape:zoom="2.3838384"
     inkscape:cx="54.305084"
     inkscape:cy="479.89831"
     inkscape:window-x="0"
     inkscape:window-y="0"
     inkscape:window-maximized="0"
     inkscape:current-layer="Layer_1" /><g
     id="g3"
     transform="translate(-209.32627,-298.25847)"><polygon
       points="305.999,395.07 305.999,395.071 306,395.071 "
       id="polygon5"
       style="fill:#ec008c" /><g
       id="g7"><defs
         id="defs9"><rect
           id="SVGID_1_"
           x="198.952"
           y="288.953"
           width="214.09599"
           height="214.09399" /></defs><clipPath
         id="SVGID_2_"><use
           xlink:href="#SVGID_1_"
           overflow="visible"
           id="use13"
           style="overflow:visible"
           x="0"
           y="0"
           width="100%"
           height="100%" /></clipPath><path
         clip-path="url(#SVGID_2_)"
         d="m 305.73,299.075 c -26.499,0.072 -50.472,10.881 -67.8,28.307 l 68.069,67.688 -0.269,-95.995 z"
         id="path15"
         inkscape:connector-curvature="0"
         style="fill:#8e3d7f" /><path
         clip-path="url(#SVGID_2_)"
         d="M 305.999,395.07 237.93,327.382 C 220.668,344.739 210,368.658 210,395.071 c 0,0.09 0.003,0.179 0.003,0.27 l 95.996,-0.271 0,0 z"
         id="path17"
         inkscape:connector-curvature="0"
         style="fill:#811422" /></g><polygon
       points="306,395.071 305.999,395.071 305.999,395.072 "
       id="polygon19"
       style="fill:#ec008c" /><g
       id="g21"><defs
         id="defs23"><rect
           id="SVGID_3_"
           x="198.952"
           y="288.953"
           width="214.09599"
           height="214.09399" /></defs><clipPath
         id="SVGID_4_"><use
           xlink:href="#SVGID_3_"
           overflow="visible"
           id="use27"
           style="overflow:visible"
           x="0"
           y="0"
           width="100%"
           height="100%" /></clipPath><path
         clip-path="url(#SVGID_4_)"
         d="M 306,395.071"
         id="path29"
         inkscape:connector-curvature="0"
         style="fill:#ec008c" /><path
         clip-path="url(#SVGID_4_)"
         d="m 306,395.071 0,0 L 373.69,327 C 356.332,309.739 332.412,299.07 306,299.07 c -0.09,0 -0.18,0.003 -0.27,0.003 l 0.27,95.998 0,0 z"
         id="path31"
         inkscape:connector-curvature="0"
         style="fill:#27813f" /><path
         clip-path="url(#SVGID_4_)"
         d="m 306,395.071 68.069,67.689 C 391.331,445.402 402,421.482 402,395.071 c 0,-0.09 -0.003,-0.179 -0.004,-0.269 L 306,395.071 Z"
         id="path33"
         inkscape:connector-curvature="0"
         style="fill:#8eb43e" /><path
         clip-path="url(#SVGID_4_)"
         d="M 373.689,327 306,395.071 401.998,394.802 C 401.924,368.303 391.116,344.33 373.689,327"
         id="path35"
         inkscape:connector-curvature="0"
         style="fill:#c68a2b" /><path
         clip-path="url(#SVGID_4_)"
         d="m 305.999,395.071 -95.996,0.269 c 0.073,26.499 10.881,50.473 28.307,67.801 l 67.689,-68.07 0,0 z"
         id="path37"
         inkscape:connector-curvature="0"
         style="fill:#67a042" /><path
         clip-path="url(#SVGID_4_)"
         d="m 305.999,395.072 0.269,95.997 c 26.499,-0.074 50.472,-10.883 67.801,-28.309 l -68.07,-67.688 0,0 z"
         id="path39"
         inkscape:connector-curvature="0"
         style="fill:#631c46" /><path
         clip-path="url(#SVGID_4_)"
         d="m 238.31,463.141 c 17.357,17.262 41.277,27.93 67.689,27.93 0.09,0 0.934,-0.002 1.024,-0.002 l -1.024,-95.997 -67.689,68.069 z"
         id="path41"
         inkscape:connector-curvature="0"
         style="fill:#273a7f" /><path
         clip-path="url(#SVGID_4_)"
         d="m 306,436.34 c 22.751,0 41.195,-18.443 41.195,-41.194 0,-22.751 -18.443,-41.193 -41.195,-41.193 -22.751,0 -41.194,18.442 -41.194,41.193 0,22.75 18.443,41.194 41.194,41.194"
         id="path43"
         inkscape:connector-curvature="0"
         style="fill:#ffffff" /></g><g
       id="g45"><defs
         id="defs47"><rect
           id="SVGID_5_"
           x="198.952"
           y="288.953"
           width="214.09599"
           height="214.09399" /></defs><clipPath
         id="SVGID_6_"><use
           xlink:href="#SVGID_5_"
           overflow="visible"
           id="use51"
           style="overflow:visible"
           x="0"
           y="0"
           width="100%"
           height="100%" /></clipPath><line
         clip-path="url(#SVGID_6_)"
         x1="253.304"
         y1="417.961"
         x2="199.715"
         y2="440.29501"
         id="line53"
         style="fill:none;stroke:#ffffff;stroke-width:3" /></g><polygon
       points="250.17,424.742 261.045,414.736 246.282,415.414 "
       id="polygon55"
       style="fill:#ffffff" /><g
       id="g57"><defs
         id="defs59"><rect
           id="SVGID_7_"
           x="198.952"
           y="288.953"
           width="214.09599"
           height="214.09399" /></defs><clipPath
         id="SVGID_8_"><use
           xlink:href="#SVGID_7_"
           overflow="visible"
           id="use63"
           style="overflow:visible"
           x="0"
           y="0"
           width="100%"
           height="100%" /></clipPath><line
         clip-path="url(#SVGID_8_)"
         x1="358.694"
         y1="374.03799"
         x2="412.284"
         y2="351.70401"
         id="line65"
         style="fill:none;stroke:#ffffff;stroke-width:3" /></g><polygon
       points="361.829,367.257 350.954,377.264 365.717,376.586 "
       id="polygon67"
       style="fill:#ffffff" /><g
       id="g69"><defs
         id="defs71"><rect
           id="SVGID_9_"
           x="198.952"
           y="288.953"
           width="214.09599"
           height="214.09399" /></defs><clipPath
         id="SVGID_10_"><use
           xlink:href="#SVGID_9_"
           overflow="visible"
           id="use75"
           style="overflow:visible"
           x="0"
           y="0"
           width="100%"
           height="100%" /></clipPath><line
         clip-path="url(#SVGID_10_)"
         x1="327.96201"
         y1="448.69501"
         x2="350.29599"
         y2="502.28299"
         id="line77"
         style="fill:none;stroke:#ffffff;stroke-width:3" /></g><polygon
       points="334.742,451.828 324.735,440.953 325.413,455.717 "
       id="polygon79"
       style="fill:#ffffff" /><g
       id="g81"><defs
         id="defs83"><rect
           id="SVGID_11_"
           x="198.952"
           y="288.953"
           width="214.09599"
           height="214.09399" /></defs><clipPath
         id="SVGID_12_"><use
           xlink:href="#SVGID_11_"
           overflow="visible"
           id="use87"
           style="overflow:visible"
           x="0"
           y="0"
           width="100%"
           height="100%" /></clipPath><line
         clip-path="url(#SVGID_12_)"
         x1="284.03799"
         y1="343.30399"
         x2="261.70401"
         y2="289.715"
         id="line89"
         style="fill:none;stroke:#ffffff;stroke-width:3" /></g><polygon
       points="277.257,340.17 287.264,351.045 286.586,336.283 "
       id="polygon91"
       style="fill:#ffffff" /><g
       id="g93"><defs
         id="defs95"><rect
           id="SVGID_13_"
           x="198.952"
           y="288.953"
           width="214.09599"
           height="214.09399" /></defs><clipPath
         id="SVGID_14_"><use
           xlink:href="#SVGID_13_"
           overflow="visible"
           id="use99"
           style="overflow:visible"
           x="0"
           y="0"
           width="100%"
           height="100%" /></clipPath><line
         clip-path="url(#SVGID_14_)"
         x1="284.26801"
         y1="448.79099"
         x2="262.168"
         y2="502.47699"
         id="line101"
         style="fill:none;stroke:#ffffff;stroke-width:3" /></g><polygon
       points="286.847,455.801 287.46,441.035 277.5,451.953 "
       id="polygon103"
       style="fill:#ffffff" /><g
       id="g105"><defs
         id="defs107"><rect
           id="SVGID_15_"
           x="198.952"
           y="288.953"
           width="214.09599"
           height="214.09399" /></defs><clipPath
         id="SVGID_16_"><use
           xlink:href="#SVGID_15_"
           overflow="visible"
           id="use111"
           style="overflow:visible"
           x="0"
           y="0"
           width="100%"
           height="100%" /></clipPath><line
         clip-path="url(#SVGID_16_)"
         x1="327.73099"
         y1="343.20901"
         x2="349.83099"
         y2="289.52301"
         id="line113"
         style="fill:none;stroke:#ffffff;stroke-width:3" /></g><polygon
       points="325.151,336.199 324.539,350.964 334.499,340.046 "
       id="polygon115"
       style="fill:#ffffff" /><g
       id="g117"><defs
         id="defs119"><rect
           id="SVGID_17_"
           x="198.952"
           y="288.953"
           width="214.09599"
           height="214.09399" /></defs><clipPath
         id="SVGID_18_"><use
           xlink:href="#SVGID_17_"
           overflow="visible"
           id="use123"
           style="overflow:visible"
           x="0"
           y="0"
           width="100%"
           height="100%" /></clipPath><line
         clip-path="url(#SVGID_18_)"
         x1="358.79001"
         y1="417.73199"
         x2="412.47699"
         y2="439.832"
         id="line125"
         style="fill:none;stroke:#ffffff;stroke-width:3" /></g><polygon
       points="365.802,415.152 351.035,414.539 361.953,424.5 "
       id="polygon127"
       style="fill:#ffffff" /><g
       id="g129"><defs
         id="defs131"><rect
           id="SVGID_19_"
           x="198.952"
           y="288.953"
           width="214.09599"
           height="214.09399" /></defs><clipPath
         id="SVGID_20_"><use
           xlink:href="#SVGID_19_"
           overflow="visible"
           id="use135"
           style="overflow:visible"
           x="0"
           y="0"
           width="100%"
           height="100%" /></clipPath><line
         clip-path="url(#SVGID_20_)"
         x1="253.209"
         y1="374.26801"
         x2="199.52299"
         y2="352.168"
         id="line137"
         style="fill:none;stroke:#ffffff;stroke-width:3" /></g><polygon
       points="246.198,376.847 260.964,377.46 250.046,367.5 "
       id="polygon139"
       style="fill:#ffffff" /></g></svg>